Coordinates
version=1
nRows=9
nColumns=24
inDegrees=yes

Units are S.I. units (second, meters, Newtons, ...)
Angles are in degrees.

endheader
time	pelvis_tilt	pelvis_list	pelvis_rotation	pelvis_tx	pelvis_ty	pelvis_tz	hip_flexion_r	hip_adduction_r	hip_rotation_r	knee_angle_r	ankle_angle_r	subtalar_angle_r	mtp_angle_r	hip_flexion_l	hip_adduction_l	hip_rotation_l	knee_angle_l	ankle_angle_l	subtalar_angle_l	mtp_angle_l	lumbar_extension	lumbar_bending	lumbar_rotation
      3.28000000	     -7.90894692	     -9.98434274	     -1.73831164	     -1.56867627	     -0.03242976	      0.50229163	      4.45514669	     17.53721107	     20.88047081	    -15.64765650	      7.29438133	     -5.02761803	     -4.80247589	     39.92331456	    -10.78733400	      1.50726602	    -56.42480265	     -9.11110934	      9.99322332	     25.53065915	      4.72719601	     10.26578587	      7.11912042
      3.28500000	     -7.99040917	     -9.77248963	     -2.23257271	     -1.56187068	     -0.03270315	      0.50245035	      3.88503381	     17.29249138	     21.34038804	    -15.47944933	      7.48157290	     -4.91265773	     -4.65486229	     40.22174731	    -10.84840250	      1.03292996	    -54.91154336	     -8.57519380	     10.54719719	     25.35744163	      4.67468197	     10.13866116	      7.72896845
      3.29000000	     -8.07101401	     -9.56787348	     -2.69759836	     -1.55503736	     -0.03301604	      0.50255516	      3.32971860	     17.04444208	     21.76020678	    -15.32477586	      7.65759087	     -4.79170523	     -4.50028877	     40.49035163	    -10.91048317	      0.56848194	    -53.33480555	     -8.02024298	     11.21007381	     25.19885905	      4.63141616	     10.02410722	      8.30694116
      3.29500000	     -8.16267455	     -9.36236758	     -3.14924579	     -1.54818750	     -0.03337106	      0.50264451	      2.79986156	     16.78652393	     22.14048133	    -15.17916898	      7.83012777	     -4.64963062	     -4.33618522	     40.73642697	    -10.97233012	      0.11317066	    -51.69219161	     -7.46005335	     11.98086547	     25.08301984	      4.60184234	      9.90392923	      8.84755871
      3.30000000	     -8.24992046	     -9.16406432	     -3.58219991	     -1.54133207	     -0.03376001	      0.50269096	      2.28303190	     16.52652339	     22.47789026	    -15.05078051	      7.99378694	     -4.48856330	     -4.15859840	     40.94340483	    -11.03254529	     -0.32274728	    -49.98704889	     -6.87092976	     12.84362646	     24.98497470	      4.56962161	      9.78941724	      9.37450100
      3.30500000	     -8.34289416	     -8.96732045	     -3.99552319	     -1.53445564	     -0.03418500	      0.50270319	      1.78720404	     16.25948494	     22.77323062	    -14.93521077	      8.15406638	     -4.30163763	     -3.96543364	     41.12247440	    -11.08672140	     -0.74574082	    -48.22167516	     -6.27629568	     13.80039935	     24.90754372	      4.54832424	      9.67644649	      9.87038739
      3.31000000	     -8.37469925	     -8.75583151	     -4.37360756	     -1.52751191	     -0.03455745	      0.50264777	      1.23403657	     15.95710725	     22.99074900	    -14.80908660	      8.26444179	     -4.12272530	     -3.66502093	     41.18951439	    -11.09784460	     -1.15134682	    -46.41959188	     -5.54583834	     14.84680659	     24.47973402	      4.46993737	      9.54310719	     10.36664451
      3.31500000	     -8.54003219	     -8.58477890	     -4.74084726	     -1.52060303	     -0.03514106	      0.50262098	      0.84582321	     15.71085152	     23.19854292	    -14.72116228	      8.42768102	     -3.88667689	     -3.47305885	     41.39730609	    -11.14803991	     -1.49310576	    -44.54920863	     -5.02925580	     15.91889924	     24.57329677	      4.53855286	      9.45157972	     10.75800710
      3.32000000	     -8.65830928	     -8.40716568	     -5.10103770	     -1.51365221	     -0.03568680	      0.50255075	      0.42041635	     15.44402578	     23.35050146	    -14.64745753	      8.58576626	     -3.60122130	     -3.24173109	     41.50353874	    -11.18022773	     -1.82007502	    -42.62878125	     -4.45922217	     17.02906155	     24.56411001	      4.55858166	      9.35723168	     11.19528007
